<?xml version="1.0" standalone="no"?><!DOCTYPE svg PUBLIC "-//W3C//DTD SVG 1.1//EN" "http://www.w3.org/Graphics/SVG/1.1/DTD/svg11.dtd"><svg t="1757678381180" class="icon" viewBox="0 0 1024 1024" version="1.1" xmlns="http://www.w3.org/2000/svg" p-id="6988" xmlns:xlink="http://www.w3.org/1999/xlink" width="200" height="200"><path d="M919.893333 442.026667c-13.653333-13.653333-30.72-20.48-49.493333-20.48h-22.186667v-37.546667c0-75.093333-61.44-136.533333-136.533333-136.533333h-129.706667v-63.146667c0-39.253333-30.72-69.973333-69.973333-69.973333s-69.973333 30.72-69.973333 69.973333v63.146667h-129.706667c-75.093333 0-136.533333 61.44-136.533333 136.533333v37.546667H153.6c-18.773333 0-35.84 6.826667-49.493333 20.48-13.653333 13.653333-20.48 30.72-20.48 49.493333v177.493333c0 18.773333 6.826667 35.84 20.48 49.493334s30.72 20.48 49.493333 20.48h22.186667v22.186666c0 63.146667 51.2 114.346667 114.346666 114.346667h443.733334c63.146667 0 114.346667-51.2 114.346666-114.346667v-22.186666H870.4c18.773333 0 35.84-6.826667 49.493333-20.48 13.653333-13.653333 20.48-30.72 20.48-49.493334V491.52c0-18.773333-6.826667-35.84-20.48-49.493333zM172.373333 687.786667H153.6c-5.12 0-10.24-1.706667-13.653333-5.12s-5.12-8.533333-5.12-13.653334V491.52c0-5.12 1.706667-10.24 5.12-13.653333 3.413333-3.413333 8.533333-5.12 13.653333-5.12h18.773333v215.04zM409.6 711.68h-102.4v-51.2h102.4v51.2z m-30.72-136.533333c-44.373333 0-81.92-35.84-81.92-81.92s35.84-81.92 81.92-81.92S460.8 450.56 460.8 494.933333s-37.546667 80.213333-81.92 80.213334z m184.32 136.533333h-102.4v-51.2h102.4v51.2z m153.6 0h-102.4v-51.2h102.4v51.2z m-71.68-136.533333c-44.373333 0-81.92-35.84-81.92-81.92s35.84-81.92 81.92-81.92 81.92 35.84 81.92 81.92-37.546667 81.92-81.92 81.92z m244.053333 93.866666c0 5.12-1.706667 10.24-5.12 13.653334-3.413333 3.413333-8.533333 5.12-13.653333 5.12h-18.773333V472.746667H870.4c5.12 0 10.24 1.706667 13.653333 5.12 3.413333 3.413333 5.12 8.533333 5.12 13.653333v177.493333z" fill="#333333" p-id="6989"></path><path d="M645.12 494.933333m-30.72 0a30.72 30.72 0 1 0 61.44 0 30.72 30.72 0 1 0-61.44 0Z" fill="#333333" p-id="6990"></path><path d="M378.88 494.933333m-30.72 0a30.72 30.72 0 1 0 61.44 0 30.72 30.72 0 1 0-61.44 0Z" fill="#333333" p-id="6991"></path></svg>